<?xml version="1.0" standalone="no"?>
<!DOCTYPE svg PUBLIC "-//W3C//DTD SVG 20010904//EN"
 "http://www.w3.org/TR/2001/REC-SVG-20010904/DTD/svg10.dtd">
<svg version="1.0" xmlns="http://www.w3.org/2000/svg"
 width="400.000000pt" height="400.000000pt" viewBox="0 0 400.000000 400.000000"
 preserveAspectRatio="xMidYMid meet">
<metadata>
Created by potrace 1.14, written by Peter Selinger 2001-2017
</metadata>
<g transform="translate(0.000000,400.000000) scale(0.100000,-0.100000)"
fill="#000000" stroke="none">
<path d="M1790 3990 c-204 -26 -412 -84 -600 -167 -767 -340 -1244 -1134
-1182 -1968 6 -83 15 -170 21 -195 6 -25 20 -88 31 -140 46 -205 149 -444 275
-635 22 -33 42 -62 45 -65 4 -3 26 -32 50 -65 82 -113 381 -395 419 -395 6 0
11 -4 11 -10 0 -5 12 -16 28 -25 15 -9 41 -24 57 -35 93 -60 259 -140 370
-180 100 -36 111 -39 170 -54 228 -56 226 -56 520 -56 219 0 295 4 350 16 39
9 88 19 110 24 77 15 170 43 190 56 11 8 27 14 36 14 33 0 280 117 369 175 25
16 52 34 61 40 55 35 100 67 122 87 14 13 58 50 98 83 65 54 136 130 241 255
78 95 133 180 226 358 23 43 30 59 57 128 62 159 68 179 112 369 15 69 18 124
18 390 0 264 -3 321 -18 385 -29 123 -48 193 -58 223 -26 77 -33 94 -45 122
-7 17 -24 57 -38 90 -29 72 -93 194 -112 216 -8 8 -14 19 -14 22 0 22 -188
262 -272 347 -158 161 -351 298 -568 402 -178 85 -303 125 -550 173 -98 19
-427 29 -530 15z m233 -607 c-7 -2 -19 -2 -25 0 -7 3 -2 5 12 5 14 0 19 -2 13
-5z m1017 -1597 c0 -2 -8 -10 -17 -17 -16 -13 -17 -12 -4 4 13 16 21 21 21 13z"/>
</g>
</svg>
